<svg height="512pt" viewBox="0 0 512 512" width="512pt" xmlns="http://www.w3.org/2000/svg"><path d="m512 256c0 141.386719-114.613281 256-256 256s-256-114.613281-256-256 114.613281-256 256-256 256 114.613281 256 256zm0 0" fill="#fe6a16"/><path d="m294.320312 509.144531c115.742188-17.375 206.105469-112.230469 216.632813-230.074219l-63.953125-63.953124-23.039062 12.226562-57.609376-57.609375-292.863281 118.574219zm0 0" fill="#f24500"/><path d="m397.363281 310.890625h-276.617187c-33.550782 0-60.746094-27.195313-60.746094-60.746094s27.195312-60.746093 60.746094-60.746093h276.621094c33.546874 0 60.746093 27.195312 60.746093 60.746093s-27.199219 60.746094-60.75 60.746094zm0 0" fill="#fff"/><path d="m397.363281 189.398438h-141.554687v121.492187h141.558594c33.546874 0 60.746093-27.195313 60.746093-60.746094s-27.199219-60.746093-60.75-60.746093zm0 0" fill="#e9edf5"/><path d="m136.378906 252.769531c0 10.148438-8.226562 18.375-18.375 18.375-10.148437 0-18.375-8.226562-18.375-18.375 0-10.148437 8.226563-18.375 18.375-18.375 10.148438 0 18.375 8.226563 18.375 18.375zm0 0" fill="#15e874"/><path d="m188.5 252.769531c0 10.148438-8.226562 18.375-18.371094 18.375-10.148437 0-18.375-8.226562-18.375-18.375 0-10.148437 8.226563-18.375 18.375-18.375 10.144532 0 18.371094 8.226563 18.371094 18.375zm0 0" fill="#15e874"/><path d="m312.71875 316.488281 45.320312-45.320312 90.640626 90.640625-45.320313 45.320312zm0 0" fill="#4a7aff"/><path d="m334.792969 294.414062 23.246093-23.246093 90.640626 90.640625-23.246094 23.25zm0 0" fill="#1f5edd"/><path d="m358.386719 160.875c-43.066407-43.070312-112.894531-43.070312-155.960938 0-43.066406 43.066406-43.066406 112.894531 0 155.960938 43.066407 43.066406 112.894531 43.066406 155.960938 0 43.070312-43.066407 43.070312-112.894532 0-155.960938zm0 0" fill="#414952"/><path d="m358.390625 316.835938c43.070313-43.066407 43.070313-112.894532 0-155.964844-43.066406-43.066406-112.894531-43.066406-155.960937 0-.199219.195312-.386719.398437-.582032.597656l155.949219 155.945312c.199219-.191406.398437-.382812.59375-.578124zm0 0" fill="#333940"/><path d="m335.378906 183.882812c-30.359375-30.363281-79.585937-30.363281-109.945312 0-30.363282 30.359376-30.363282 79.585938 0 109.945313 30.359375 30.359375 79.585937 30.359375 109.945312 0 30.363282-30.359375 30.363282-79.585937 0-109.945313zm0 0" fill="#bfe1ff"/><path d="m335.382812 293.828125c30.363282-30.359375 30.363282-79.585937 0-109.945313-30.359374-30.363281-79.585937-30.363281-109.945312 0-.199219.195313-.378906.402344-.574219.601563l109.917969 109.914063c.199219-.191407.40625-.375.601562-.570313zm0 0" fill="#87c7ff"/></svg>